<svg viewBox="0 0 140 140" fill="none" xmlns="http://www.w3.org/2000/svg">
<path d="M80.2821 36.1823C80.5658 36.1814 80.8495 36.1806 81.1418 36.1797C81.9129 36.178 82.6839 36.1784 83.4549 36.1799C84.2659 36.1811 85.077 36.18 85.888 36.1792C87.2491 36.1784 88.6101 36.1795 89.9712 36.1818C91.54 36.1844 93.1088 36.1836 94.6776 36.1809C96.0301 36.1788 97.3826 36.1785 98.7351 36.1797C99.5404 36.1804 100.346 36.1806 101.151 36.179C102.049 36.1778 102.948 36.1796 103.846 36.1823C104.109 36.1813 104.373 36.1803 104.644 36.1793C106.399 36.1889 108.125 36.2034 109.62 37.2004C109.62 37.3582 109.62 37.516 109.62 37.6786C109.778 37.6786 109.936 37.6786 110.099 37.6786C110.442 38.1679 110.442 38.1679 110.816 38.8142C110.939 39.025 111.062 39.2358 111.189 39.453C112.011 40.9269 112.011 40.9269 112.011 41.7428C112.169 41.7428 112.327 41.7428 112.489 41.7428C112.624 42.0854 112.624 42.0854 112.761 42.4348C112.884 42.7471 113.008 43.0593 113.132 43.3715C113.23 43.62 113.23 43.62 113.33 43.8735C113.691 44.7801 114.079 45.6535 114.521 46.5243C119.073 56.4349 118.327 70.2295 114.641 80.2337C113.948 82.0127 113.045 83.6817 112.114 85.3457C111.784 85.9494 111.485 86.5609 111.189 87.1817C109.347 90.9135 109.347 90.9135 107.712 91.6971C105.663 92.3827 104.208 92.3267 102.209 91.4701C102.209 91.3123 102.209 91.1545 102.209 90.992C101.736 90.7553 101.736 90.7553 101.253 90.5138C101.253 90.356 101.253 90.1983 101.253 90.0357C101.095 90.0357 100.937 90.0357 100.775 90.0357C100.472 89.7035 100.472 89.7035 100.134 89.2409C100.01 89.0738 99.8868 88.9066 99.7595 88.7343C99.631 88.5573 99.5025 88.3802 99.3701 88.1978C99.1169 87.8531 98.8635 87.5085 98.6099 87.164C98.4898 86.9996 98.3697 86.8352 98.2459 86.6659C98.0756 86.4379 97.9001 86.2139 97.7219 85.992C97.5944 85.8333 97.4655 85.6757 97.3361 85.5185C96.9495 85.0151 96.9495 85.0151 96.9495 84.537C96.7917 84.537 96.6339 84.537 96.4713 84.537C96.1258 84.1588 96.1258 84.1588 95.7242 83.6255C95.5046 83.3343 95.5046 83.3343 95.2806 83.0372C95.1213 82.8221 94.962 82.607 94.7978 82.3853C94.6212 82.1505 94.4446 81.9157 94.2627 81.6737C93.8742 81.1507 93.5953 80.7751 93.395 80.4934C92.8852 79.776 92.8852 79.6663 92.8852 79.2774C92.7274 79.2774 92.5696 79.2774 92.4071 79.2774C92.0531 78.8823 92.0531 78.8823 91.645 78.336C91.4965 78.1394 91.3479 77.9428 91.1949 77.7402C91.0427 77.5374 90.8904 77.3346 90.7336 77.1257C90.4503 76.7616 90.1665 76.398 89.8819 76.0349C89.6366 75.7187 89.3915 75.4023 89.1466 75.0859C89.1177 75.0486 89.0889 75.0113 89.06 74.974C88.9201 74.7947 88.7802 74.6153 88.6361 74.4305C88.5048 74.2598 88.3735 74.0891 88.2382 73.9132C88.0612 73.6843 88.0612 73.6843 87.8805 73.4509C87.6256 73.0615 87.6256 73.0615 87.6256 72.5833C87.4678 72.5833 87.31 72.5833 87.1475 72.5833C86.8393 72.234 86.8393 72.234 86.5199 71.7764C86.4133 71.6267 86.3066 71.4769 86.1968 71.3226C85.9521 70.9098 85.9521 70.9098 85.9521 70.4317C85.7943 70.4317 85.6365 70.4317 85.4739 70.4317C84.7482 69.5643 84.411 68.7445 84.2456 67.8425C84.2083 67.6393 84.1797 67.432 84.1574 67.219C84.107 66.7383 84.0884 66.2288 84.0731 65.6735C84.1243 64.964 84.1243 64.964 83.8004 64.6939C83.7634 64.2279 83.7634 64.2279 83.7257 63.7525C83.4446 61.0233 81.868 58.4586 80.2143 56.3263C79.8593 56.0896 79.8593 56.0896 79.4971 55.8482C79.4971 55.6904 79.4971 55.5326 79.4971 55.37C79.1026 55.2122 78.7082 55.0544 78.3017 54.8919C78.3017 54.7341 78.3017 54.5763 78.3017 54.4137C78.0516 54.3213 78.0516 54.3213 77.7965 54.227C77.2944 54.015 76.8232 53.7749 76.3561 53.5162C76.1133 53.3817 75.8715 53.2421 75.6271 53.0988C75.3772 52.9534 75.1272 52.8079 74.8697 52.658C74.2375 52.2621 74.2375 52.2621 73.7593 51.7839C73.7593 51.5472 73.7593 51.3106 73.7593 51.0667C73.6015 51.0667 73.4438 51.0667 73.2812 51.0667C73.2812 50.83 73.2812 50.5933 73.2812 50.3495C73.1234 50.3495 72.9656 50.3495 72.803 50.3495C72.803 46.7203 72.803 43.0912 72.803 39.3521C72.9608 39.3521 73.1186 39.3521 73.2812 39.3521C73.2812 39.0365 73.2812 38.7209 73.2812 38.3958C73.439 38.3958 73.5968 38.3958 73.7593 38.3958C73.8234 38.2429 73.8875 38.0901 73.9536 37.9326C74.2375 37.4395 74.2375 37.4395 74.9547 37.2004C74.9547 37.0426 74.9547 36.8849 74.9547 36.7223C76.7466 36.285 78.4421 36.1755 80.2821 36.1823Z" fill="#652C8F"/>
<path d="M73.2812 38.3958H73.7593L73.9536 37.9326C74.2375 37.4395 74.2375 37.4395 74.9547 37.2004V36.7223C74.3117 36.863 73.5711 37.8966 73.2812 38.3958Z" fill="#652C8F"/>
<path d="M72.803 39.3521H73.2812V38.3958L72.803 39.3521Z" fill="#652C8F"/>
<path d="M73.2812 51.0667V50.3495H72.803L73.2812 51.0667Z" fill="#652C8F"/>
<path d="M73.7593 51.7839V51.0667H73.2812L73.7593 51.7839Z" fill="#652C8F"/>
<path d="M78.3017 54.8919V54.4137L77.7965 54.227C77.2944 54.015 76.8232 53.7749 76.3561 53.5162L78.3017 54.8919Z" fill="#652C8F"/>
<path d="M79.4971 55.8482V55.37L78.3017 54.8919L79.4971 55.8482Z" fill="#652C8F"/>
<path d="M84.0731 65.6735C84.1243 64.964 84.1243 64.964 83.8004 64.6939L84.1574 67.219C84.107 66.7383 84.0884 66.2288 84.0731 65.6735Z" fill="#652C8F"/>
<path d="M86.5199 71.7764L86.1968 71.3226C85.9521 70.9098 85.9521 70.9098 85.9521 70.4317H85.4739L86.5199 71.7764Z" fill="#652C8F"/>
<path d="M89.06 74.974L88.6361 74.4305L88.2382 73.9132L87.8805 73.4509C87.6256 73.0615 87.6256 73.0615 87.6256 72.5833H87.1475L89.1466 75.0859L89.06 74.974Z" fill="#652C8F"/>
<path d="M92.8852 79.2774H92.4071L93.395 80.4934C92.8852 79.776 92.8852 79.6663 92.8852 79.2774Z" fill="#652C8F"/>
<path d="M97.3361 85.5185C96.9495 85.0151 96.9495 85.0151 96.9495 84.537H96.4713L97.7219 85.992C97.5944 85.8333 97.4655 85.6757 97.3361 85.5185Z" fill="#652C8F"/>
<path d="M102.209 91.4701V90.992L101.253 90.5138L102.209 91.4701Z" fill="#652C8F"/>
<path d="M101.253 90.5138V90.0357H100.775L101.253 90.5138Z" fill="#652C8F"/>
<path d="M109.62 37.2004V37.6786H110.099L109.62 37.2004Z" fill="#652C8F"/>
<path d="M111.189 39.453C112.011 40.9269 112.011 40.9269 112.011 41.7428H112.489L111.189 39.453Z" fill="#652C8F"/>
<path d="M29.4383 49.841C29.8756 49.8399 29.8756 49.8399 30.3218 49.8389C30.6479 49.8394 30.9741 49.8399 31.3002 49.8404C31.6414 49.8401 31.9827 49.8396 32.3239 49.8391C33.2542 49.838 34.1844 49.8384 35.1147 49.8392C36.0893 49.8398 37.0639 49.8392 38.0385 49.8389C39.6786 49.8384 41.3186 49.839 42.9586 49.8401C44.8486 49.8414 46.7385 49.841 48.6284 49.8397C50.2531 49.8386 51.8778 49.8385 53.5025 49.8391C54.4718 49.8395 55.441 49.8395 56.4103 49.8387C57.3247 49.838 58.2391 49.8385 59.1536 49.8399C59.4869 49.8402 59.8202 49.8401 60.1536 49.8396C61.7618 49.8373 63.3667 49.8595 64.9727 49.948C65.2206 49.9615 65.4684 49.9751 65.7238 49.9891C66.4178 50.1239 66.6589 50.2565 67.0653 50.8276C67.0952 51.4253 67.0952 51.4253 66.8262 52.023C66.1239 52.3816 66.1239 52.3816 65.6654 52.5506C62.147 53.8516 59.009 56.235 57.2689 59.5986C56.8454 60.5553 56.557 61.5278 56.307 62.5422C56.2372 62.8219 56.2372 62.8219 56.1659 63.1072C55.9024 64.2827 55.8142 65.3869 55.784 66.5915C55.6301 69.1197 54.106 70.7658 52.4818 72.5833C52.4029 72.7411 52.324 72.8989 52.2427 73.0614C52.0849 73.0614 51.9271 73.0614 51.7646 73.0614C51.7026 73.1952 51.6407 73.329 51.5768 73.4668C51.4058 73.7913 51.2201 74.1099 51.0231 74.4236C50.0314 76.0024 48.7522 77.4551 47.6032 78.8958C46.9974 79.6467 46.9974 79.6467 46.5049 80.4727C46.3472 80.4727 46.1894 80.4727 46.0268 80.4727C46.0268 80.6305 46.0268 80.7883 46.0268 80.9509C45.869 80.9509 45.7112 80.9509 45.5486 80.9509C45.4796 81.1333 45.4106 81.3158 45.3395 81.5037C45.0705 82.1462 45.0705 82.1462 44.5924 82.8635C44.4346 82.8635 44.2768 82.8635 44.1142 82.8635C44.055 83.036 43.9959 83.2086 43.9349 83.3864C43.7537 83.7942 43.5527 84.1302 43.3211 84.4525C43.1301 84.7183 42.9184 84.9747 42.6798 85.2542C41.6282 86.508 40.6269 87.7915 39.6344 89.0925C39.4559 89.3248 39.2775 89.5572 39.0937 89.7966C38.9303 90.0129 38.767 90.2293 38.5987 90.4522C37.8229 91.3599 36.8784 91.8101 35.7466 92.1873C34.1045 92.3006 32.6615 92.1106 31.2584 91.1927C30.1704 90.235 29.4628 88.9802 28.7238 87.7495C28.6183 87.5744 28.5128 87.3994 28.4041 87.219C28.1792 86.8299 27.9861 86.4683 27.829 86.1015C27.5925 85.5492 27.4377 84.9851 27.3791 84.2979C27.2213 84.2979 27.0635 84.2979 26.9009 84.2979C24.0525 77.6798 22.3092 71.3082 22.3273 64.1055C22.3286 63.4997 22.3274 62.894 22.3258 62.2882C22.3219 54.435 22.3219 54.435 24.2711 51.5448C24.4289 51.5448 24.5867 51.5448 24.7492 51.5448C24.7492 51.387 24.7492 51.2293 24.7492 51.0667C25.7962 50.4794 26.6694 50.2501 27.8572 50.1104C28.2771 49.6905 28.8684 49.8412 29.4383 49.841Z" fill="#EB1F7A"/>
<path d="M27.829 86.1015C27.5925 85.5492 27.4377 84.9851 27.3791 84.2979H26.9009L27.829 86.1015Z" fill="#EB1F7A"/>
<path d="M24.2711 51.5448H24.7492V51.0667L24.2711 51.5448Z" fill="#EB1F7A"/>
<path d="M52.2427 73.0614H51.7646L51.5768 73.4668C51.4058 73.7913 51.2201 74.1099 51.0231 74.4236L52.2427 73.0614Z" fill="#EB1F7A"/>
<path d="M46.5049 80.4727H46.0268V80.9509L46.5049 80.4727Z" fill="#EB1F7A"/>
<path d="M46.0268 80.9509H45.5486L45.3395 81.5037C45.0705 82.1462 45.0705 82.1462 44.5924 82.8635L46.0268 80.9509Z" fill="#EB1F7A"/>
<path d="M44.5924 82.8635H44.1142L43.9349 83.3864C43.7537 83.7942 43.5527 84.1302 43.3211 84.4525L44.5924 82.8635Z" fill="#EB1F7A"/>
<path d="M72.6751 57.361C77.7953 59.8294 77.7953 59.8294 78.7799 62.3031C78.9553 63.4179 78.9578 64.5086 78.9442 65.6352C78.9509 65.9278 78.9575 66.2204 78.9643 66.5219C78.9591 68.4472 78.6765 69.7219 77.3454 71.1488C76.7477 71.6662 76.7477 71.6662 76.1501 72.0155C75.8131 72.2133 75.8131 72.2133 75.4693 72.4152C71.5952 74.5082 71.5952 74.5082 70.4123 74.7349C70.4123 74.8927 70.4123 75.0505 70.4123 75.2131C70.1608 75.3807 69.9093 75.5484 69.6502 75.7211C68.5344 76.4861 67.7461 77.5179 67.4118 78.8425C67.2835 79.647 67.273 80.4148 67.2713 81.2298C67.2703 81.4846 67.2703 81.4846 67.2693 81.7445C67.2673 82.3124 67.267 82.8802 67.2666 83.448C67.2655 83.8557 67.2643 84.2634 67.263 84.671C67.2603 85.5483 67.2582 86.4256 67.2567 87.3029C67.2541 88.6903 67.2493 90.0776 67.244 91.465C67.2292 95.4099 67.2163 99.3548 67.2084 103.3C67.204 105.479 67.1971 107.658 67.1873 109.837C67.1823 110.99 67.1786 112.143 67.1781 113.296C67.1775 114.38 67.1738 115.464 67.1675 116.549C67.1657 116.946 67.1652 117.344 67.166 117.742C67.167 118.285 67.1635 118.828 67.159 119.371C67.1582 119.675 67.1574 119.979 67.1566 120.292C67.0414 121.33 66.7395 122.17 65.9792 122.907C65.0682 123.429 64.326 123.662 63.2513 123.46C62.2722 123.073 61.5777 122.332 60.8494 121.593C60.6737 121.418 60.498 121.243 60.317 121.063C59.7828 120.527 59.2498 119.99 58.7173 119.453C58.3771 119.11 58.0368 118.768 57.6966 118.426C57.5235 118.251 57.3505 118.076 57.1722 117.895C57.0065 117.729 56.8409 117.562 56.6702 117.391C56.5201 117.239 56.37 117.088 56.2153 116.932C55.8422 116.551 55.8422 116.551 55.3507 116.334C55.3507 116.176 55.3507 116.018 55.3507 115.856C55.1929 115.856 55.0351 115.856 54.8725 115.856C54.2449 115.288 54.2449 115.288 53.6771 114.66C53.6771 114.502 53.6771 114.345 53.6771 114.182C53.5194 114.182 53.3616 114.182 53.199 114.182C52.9058 113.875 52.9058 113.875 52.5714 113.45C51.8787 112.61 51.1139 111.927 50.2853 111.224C49.752 110.745 49.3388 110.201 48.8957 109.64C48.4217 109.236 47.9434 108.838 47.4612 108.444C46.8588 107.871 46.3123 107.309 45.8027 106.651C45.2261 105.952 44.5763 105.431 43.8751 104.858C42.3331 103.47 40.916 101.651 40.7158 99.5332C40.6269 97.2221 41.2667 95.6612 42.733 93.8972C43.1293 93.4173 43.4812 92.9263 43.8303 92.4114C44.0029 92.1797 44.1755 91.9479 44.3533 91.7092C44.5111 91.7092 44.6689 91.7092 44.8314 91.7092C44.8887 91.5387 44.9461 91.3683 45.0051 91.1927C45.1854 90.7908 45.39 90.4515 45.6219 90.1282C45.8413 89.8222 46.0851 89.5306 46.3555 89.2138C46.9597 88.4962 47.5458 87.7979 48.044 87.0024C48.1672 86.82 48.2905 86.6375 48.4175 86.4495C48.5753 86.4495 48.7331 86.4495 48.8957 86.4495C48.945 86.2868 48.9943 86.1241 49.0451 85.9565C49.2009 85.6236 49.3735 85.3343 49.5645 85.0629C49.8281 84.6884 50.1267 84.3481 50.4646 83.9748C50.8543 83.5449 50.8543 83.5449 51.2864 82.8634C51.4442 82.8634 51.602 82.8634 51.7646 82.8634C51.8213 82.6939 51.878 82.5244 51.9364 82.3498C52.1211 81.9387 52.3328 81.5895 52.572 81.2564C52.7965 80.9439 53.0452 80.6455 53.3185 80.3233C53.8728 79.6664 54.3956 79.0365 54.8725 78.321C55.0303 78.321 55.1881 78.321 55.3507 78.321C55.3507 78.1633 55.3507 78.0055 55.3507 77.8429C55.7439 77.4393 56.1428 77.0412 56.546 76.6475C56.7827 76.2925 56.7827 76.2925 57.0242 75.9303C57.182 75.9303 57.3398 75.9303 57.5023 75.9303C57.5023 75.7725 57.5023 75.6147 57.5023 75.4522C57.6601 75.4522 57.8179 75.4522 57.9805 75.4522C58.0393 75.3172 58.0982 75.1822 58.1588 75.0431C58.5098 74.4024 58.9352 73.927 59.4299 73.3901C60.0981 72.6818 60.0981 72.6818 60.6103 71.8661C60.7681 71.8661 60.9259 71.8661 61.0884 71.8661C61.0884 71.7083 61.0884 71.5505 61.0884 71.3879C61.2462 71.3879 61.404 71.3879 61.5666 71.3879C61.5912 71.2203 61.6159 71.0526 61.6413 70.8799C61.8056 70.1925 61.8056 70.1925 62.1685 69.5328C62.5623 68.6719 62.6142 68.0934 62.62 67.1518C62.6278 66.6993 62.6278 66.6993 62.6359 66.2376C62.638 65.9254 62.6402 65.6132 62.6424 65.2915C62.6467 64.6714 62.6541 64.0513 62.6648 63.4312C62.6665 63.1574 62.6682 62.8836 62.67 62.6015C62.7936 61.5578 63.0935 60.7425 63.8814 60.0234C64.0257 59.9368 64.17 59.8503 64.3187 59.7611C64.5612 59.6127 64.5612 59.6127 64.8085 59.4613C64.9763 59.3636 65.1441 59.2659 65.317 59.1653C65.5618 59.016 65.5618 59.016 65.8115 58.8636C70.0047 56.3374 70.0047 56.3374 72.6751 57.361Z" fill="#2AAAE0"/>
<path d="M44.3533 91.7092H44.8314L45.0051 91.1927C45.1854 90.7908 45.39 90.4515 45.6219 90.1282L44.3533 91.7092Z" fill="#2AAAE0"/>
<path d="M48.4175 86.4495H48.8957L49.0451 85.9565C49.2009 85.6236 49.3735 85.3343 49.5645 85.0629L48.4175 86.4495Z" fill="#2AAAE0"/>
<path d="M51.2864 82.8634H51.7646L51.9364 82.3498C52.1211 81.9387 52.3328 81.5895 52.572 81.2564L51.2864 82.8634Z" fill="#2AAAE0"/>
<path d="M54.8725 78.321H55.3507V77.8429L54.8725 78.321Z" fill="#2AAAE0"/>
<path d="M57.0242 75.9303H57.5023V75.4522H57.9805L58.1588 75.0431C58.5098 74.4024 58.9352 73.927 59.4299 73.3901L57.0242 75.9303Z" fill="#2AAAE0"/>
<path d="M60.6103 71.8661H61.0884V71.3879H61.5666L61.6413 70.8799C61.8056 70.1925 61.8056 70.1925 62.1685 69.5328L60.6103 71.8661Z" fill="#2AAAE0"/>
<path d="M75.4693 72.4152C71.5952 74.5082 71.5952 74.5082 70.4123 74.7349V75.2131L75.4693 72.4152Z" fill="#2AAAE0"/>
<path d="M55.3507 116.334V115.856H54.8725L55.3507 116.334Z" fill="#2AAAE0"/>
<path d="M53.6771 114.66V114.182H53.199L53.6771 114.66Z" fill="#2AAAE0"/>
<path d="M93.6024 90.0357H94.0805V90.5138H94.5587L93.4212 89.2195C93.6024 89.529 93.6024 89.6803 93.6024 90.0357Z" fill="#8BC43E"/>
<path d="M91.4507 86.4496C92.168 87.4978 92.168 87.4978 92.168 88.1231H92.6461L91.4507 86.4496Z" fill="#8BC43E"/>
<path d="M90.4944 85.2542L90.9726 86.4496H91.4507L90.4944 85.2542Z" fill="#8BC43E"/>
<path d="M90.0163 84.776V85.2542H90.4944L90.0163 84.776Z" fill="#8BC43E"/>
<path fill-rule="evenodd" clip-rule="evenodd" d="M89.2297 83.8135C89.1728 83.6889 89.0692 83.5817 88.8807 83.3864L89.2297 83.8135Z" fill="#8BC43E"/>
<path d="M84.7567 78.7992V78.3211C82.6977 76.9484 79.8615 76.6049 77.6097 77.7019L76.9121 78.0969C76.4978 78.3295 76.0841 78.5631 75.6719 78.7992V79.2773H74.9547L74.4765 79.7555C72.8906 81.6491 72.5628 83.3329 72.5971 85.7414C72.6028 86.1165 72.6053 86.4917 72.605 86.8669C72.6004 87.8937 72.6019 88.9201 72.6115 89.9469C72.6218 91.0367 72.6253 92.1263 72.6261 93.2161C72.6272 95.0423 72.6331 96.8684 72.6455 98.6946C72.6622 101.055 72.6726 103.415 72.676 105.776C72.6789 107.824 72.6847 109.871 72.6925 111.919C72.695 112.573 72.6975 113.227 72.6994 113.881C72.7024 114.927 72.7065 115.972 72.7138 117.018C72.7168 117.403 72.7196 117.787 72.7222 118.172C72.7234 118.708 72.7247 119.245 72.7294 119.782L72.7342 120.266C72.7404 121.293 72.7062 121.687 73.2812 122.55C73.8196 123.121 74.2152 123.472 75.0079 123.575C76.0238 123.585 76.9343 123.615 77.7484 122.926L78.1831 122.493L78.6598 122.018L79.1534 121.519L79.6498 121.028L80.1256 120.55C80.2945 120.381 80.4466 120.222 80.5868 120.06C80.824 119.786 81.0273 119.504 81.221 119.148L81.4097 118.724C81.8878 118.724 81.8878 118.724 82.359 118.309L82.9432 117.72C83.283 117.379 83.6227 117.037 83.9608 116.695C84.2042 116.448 84.448 116.202 84.6923 115.956C85.3356 115.31 85.9781 114.663 86.6195 114.016C87.6626 112.962 88.7067 111.909 89.7522 110.858C90.1205 110.488 90.4885 110.117 90.8557 109.746C91.9554 108.633 93.0524 107.532 94.2448 106.517C94.7109 106.135 94.7109 106.135 95.0368 105.815V105.336H95.515C96.038 104.873 96.038 104.873 96.3527 104.541L96.7104 104.141C97.7833 102.943 98.6211 101.816 99.0105 100.236C99.3014 98.1883 98.9765 96.6055 97.8282 94.89L97.4276 94.339C97.1906 94.0088 96.9516 93.68 96.7104 93.3528C96.471 93.0442 96.232 92.7354 95.9931 92.4264L95.6009 91.8829L95.2161 91.3506C94.8687 90.8649 94.8687 90.8649 94.5587 90.5138H94.0805V90.0357H93.6024C93.6024 89.6803 93.6024 89.529 93.4212 89.2195C93.287 88.9901 93.0532 88.6738 92.6461 88.1231H92.168C92.168 87.4978 92.168 87.4978 91.4507 86.4496H90.9726L90.4944 85.2542H90.0163V84.776L89.2991 84.537C89.2991 84.151 89.2991 83.9727 89.2339 83.8228C89.2325 83.8197 89.2311 83.8166 89.2297 83.8135L88.8807 83.3864C88.3181 82.8743 88.3181 82.8743 87.8945 82.206C87.6121 81.7741 87.3272 81.3437 87.0326 80.92L86.6543 80.398C86.3023 79.9077 86.3023 79.9077 85.952 79.5164L85.2348 79.2773V78.7992H84.7567Z" fill="#8BC43E"/>
<path d="M89.2991 84.537L90.0163 84.776L89.2297 83.8135C89.2311 83.8166 89.2325 83.8197 89.2339 83.8228C89.2991 83.9727 89.2991 84.151 89.2991 84.537Z" fill="#8BC43E"/>
<path d="M85.2348 78.7992V79.2773L85.952 79.5164L85.2348 78.7992Z" fill="#8BC43E"/>
<path d="M84.7567 78.3211V78.7992H85.2348L84.7567 78.3211Z" fill="#8BC43E"/>
<path d="M74.9547 79.2773H75.6719V78.7992L74.9547 79.2773Z" fill="#8BC43E"/>
<path d="M82.359 118.309C81.8878 118.724 81.8878 118.724 81.4097 118.724L81.221 119.148C81.0273 119.504 80.824 119.786 80.5868 120.06L82.359 118.309Z" fill="#8BC43E"/>
<path d="M95.515 105.336H95.0368V105.815L95.515 105.336Z" fill="#8BC43E"/>
<path d="M65.6308 17.5963C65.9745 18.1343 65.9745 18.1343 66.109 18.5526C66.2668 18.5526 66.4245 18.5526 66.5871 18.5526C67.0103 19.8289 67.1352 20.9373 67.1309 22.277C67.1321 22.4751 67.1334 22.6731 67.1346 22.8772C67.1379 23.5276 67.1377 24.1779 67.1372 24.8283C67.1381 25.2829 67.1391 25.7375 67.1403 26.192C67.1421 27.143 67.142 28.0939 67.1407 29.0448C67.1393 30.2611 67.1434 31.4773 67.1489 32.6935C67.1525 33.6317 67.1527 34.5698 67.1519 35.5079C67.152 35.9563 67.1533 36.4046 67.1557 36.853C67.1587 37.4806 67.157 38.1081 67.1543 38.7357C67.1561 38.9193 67.1579 39.1029 67.1598 39.2921C67.1448 40.8372 66.7838 41.9325 65.7802 43.1473C65.5058 43.3695 65.282 43.5254 65.0525 43.6365C64.7437 43.7859 64.4245 43.8544 63.9573 43.8944C63.9573 44.0522 63.9573 44.21 63.9573 44.3726C59.8757 44.4005 55.7942 44.4216 51.7126 44.4345C49.8173 44.4407 47.922 44.4491 46.0268 44.4628C44.3744 44.4747 42.722 44.4824 41.0696 44.4851C40.1951 44.4866 39.3207 44.4902 38.4462 44.499C37.4686 44.5086 36.4912 44.5088 35.5136 44.5083C35.2254 44.5126 34.9372 44.5169 34.6403 44.5213C33.0118 44.5113 31.6961 44.3648 30.487 43.1772C30.487 43.0194 30.487 42.8616 30.487 42.6991C30.3292 42.6991 30.1714 42.6991 30.0089 42.6991C29.3569 41.4224 29.0538 40.31 29.2916 38.8739C29.7472 37.6423 30.3461 36.6125 31.0996 35.5418C31.195 35.4011 31.2904 35.2604 31.3887 35.1155C31.6326 34.7648 31.8952 34.4272 32.1605 34.0924C32.3183 34.0924 32.4761 34.0924 32.6387 34.0924C32.6954 33.9596 32.7521 33.8268 32.8105 33.6899C33.1884 33.0067 33.6604 32.4987 34.1915 31.9271C34.1919 31.9267 34.1922 31.9262 34.1926 31.9258C34.7677 31.305 35.2766 30.7332 35.7466 30.0282C35.9044 30.0282 36.0622 30.0282 36.2248 30.0282C36.2248 29.8704 36.2248 29.7126 36.2248 29.55C36.5535 29.1615 36.5535 29.1615 36.942 28.8328C37.0998 28.8328 37.2576 28.8328 37.4201 28.8328C37.4201 28.675 37.4201 28.5172 37.4201 28.3547C37.874 27.9419 37.874 27.9419 38.4661 27.488C38.6602 27.337 38.8544 27.186 39.0544 27.0304C39.5718 26.6811 39.5718 26.6811 40.0499 26.6811C40.1288 26.4445 40.2077 26.2078 40.289 25.9639C40.883 25.4904 40.883 25.4904 41.6637 24.9628C41.8698 24.8235 41.8698 24.8235 42.0801 24.6813C44.6104 22.9845 45.5972 22.3227 46.2077 22.0647C46.598 21.8997 46.8345 21.8997 47.2222 21.8997C47.2222 21.7419 47.2222 21.5841 47.2222 21.4215C48.4722 20.7734 49.7099 20.1573 51.038 19.6864C51.5772 19.4901 52.1022 19.268 52.6312 19.0457C53.9222 18.5221 55.2481 18.1583 56.5918 17.7953C57.2347 17.6629 57.2347 17.6629 57.5023 17.3573C58.0602 17.2776 58.618 17.1979 59.1758 17.1182C59.2547 17.0393 59.3336 16.9604 59.4149 16.8791C61.5685 16.4484 63.8261 16.184 65.6308 17.5963Z" fill="#652C8F"/>
<path d="M65.0525 43.6365C64.7437 43.7859 64.4245 43.8544 63.9573 43.8944V44.3726L65.0525 43.6365Z" fill="#652C8F"/>
<path d="M65.6308 17.5963C65.9745 18.1343 65.9745 18.1343 66.109 18.5526H66.5871L65.6308 17.5963Z" fill="#652C8F"/>
<path d="M57.5023 17.3573L59.1758 17.1182L59.4149 16.8791L57.5023 17.3573Z" fill="#652C8F"/>
<path d="M56.5918 17.7953C57.2347 17.6629 57.2347 17.6629 57.5023 17.3573L56.5918 17.7953Z" fill="#652C8F"/>
<path d="M46.2077 22.0647C46.598 21.8997 46.8345 21.8997 47.2222 21.8997V21.4215L46.2077 22.0647Z" fill="#652C8F"/>
<path d="M38.4661 27.488L39.0544 27.0304C39.5718 26.6811 39.5718 26.6811 40.0499 26.6811L40.289 25.9639L38.4661 27.488Z" fill="#652C8F"/>
<path d="M36.942 28.8328H37.4201V28.3547L36.942 28.8328Z" fill="#652C8F"/>
<path d="M35.7466 30.0282H36.2248V29.55L35.7466 30.0282Z" fill="#652C8F"/>
<path d="M32.1605 34.0924H32.6387L32.8105 33.6899C33.1884 33.0067 33.6604 32.4987 34.1915 31.9271L32.1605 34.0924Z" fill="#652C8F"/>
<path d="M30.487 43.1772V42.6991H30.0089L30.487 43.1772Z" fill="#652C8F"/>
<path d="M80.6925 17.1182C81.0974 17.2185 81.0974 17.2185 81.5105 17.3209C85.9169 18.4499 90.2432 19.89 94.0806 22.3778C94.2852 22.5051 94.4898 22.6324 94.7007 22.7635C95.9603 23.5508 97.1997 24.3679 98.4287 25.2019C98.5667 25.294 98.7047 25.3861 98.8469 25.481C99.1796 25.7093 99.5003 25.9548 99.8183 26.203C99.8183 26.3608 99.8183 26.5186 99.8183 26.6812C99.9761 26.6812 100.134 26.6812 100.296 26.6812C100.296 26.839 100.296 26.9967 100.296 27.1593C100.496 27.2481 100.496 27.2481 100.7 27.3386C101.187 27.6021 101.597 27.8543 101.992 28.179C102.145 28.3047 102.296 28.4414 102.448 28.5938C102.553 29.3409 102.553 29.3409 102.448 30.0282C101.865 30.611 101.721 30.5663 100.922 30.5671C100.592 30.5691 100.592 30.5691 100.255 30.5712C99.8914 30.5697 99.8914 30.5697 99.5206 30.5682C99.266 30.5691 99.0113 30.5699 98.7489 30.5708C97.9035 30.5729 97.0581 30.5715 96.2126 30.5699C95.6266 30.5702 95.0405 30.5706 94.4544 30.5712C93.2242 30.5719 91.994 30.5709 90.7638 30.5687C89.1865 30.566 87.6092 30.5675 86.0318 30.5704C84.8208 30.5721 83.6097 30.5716 82.3986 30.5703C81.8171 30.57 81.2355 30.5704 80.654 30.5715C79.8407 30.5727 79.0274 30.5709 78.2141 30.5682C77.8528 30.5697 77.8528 30.5697 77.4842 30.5712C75.4666 30.5589 75.4666 30.5589 74.4765 30.0282C74.4765 29.8704 74.4765 29.7126 74.4765 29.5501C74.2399 29.4712 74.0032 29.3923 73.7593 29.311C73.7593 29.1532 73.7593 28.9954 73.7593 28.8328C73.6015 28.8328 73.4437 28.8328 73.2812 28.8328C72.6413 27.89 72.7341 26.8622 72.7395 25.7688C72.7391 25.5649 72.7386 25.361 72.7381 25.1509C72.7378 24.7207 72.7387 24.2904 72.7407 23.8602C72.7433 23.2012 72.7407 22.5424 72.7377 21.8834C72.738 21.4651 72.7386 21.0469 72.7395 20.6287C72.7386 20.4314 72.7376 20.2342 72.7366 20.031C72.7443 19.0971 72.7515 18.63 73.2812 17.8355C73.31 17.8355 73.3388 17.8355 73.3677 17.8355C73.4968 17.8355 73.6265 17.8355 73.7593 17.8355C73.8234 17.6826 73.8875 17.5297 73.9536 17.3722C74.0277 17.2436 74.1195 17.1304 74.2268 17.0314C74.258 17.0027 74.2904 16.9752 74.324 16.9488C75.7149 15.8584 79.2192 16.737 80.6925 17.1182Z" fill="#F5921E"/>
<path d="M73.7593 17.8355L73.9536 17.3722L73.3677 17.8355H73.7593Z" fill="#F5921E"/>
<path d="M73.2812 17.8355H73.3677L73.9536 17.3722C74.0277 17.2436 74.1195 17.1304 74.2268 17.0314L73.2812 17.8355Z" fill="#F5921E"/>
<path d="M99.8183 26.203V26.6812H100.296V27.1593L100.7 27.3386C101.187 27.6021 101.597 27.8543 101.992 28.179L99.8183 26.203Z" fill="#F5921E"/>
<path d="M74.4765 30.0282V29.5501L73.7593 29.311L74.4765 30.0282Z" fill="#F5921E"/>
<path d="M73.7593 29.311V28.8328H73.2812L73.7593 29.311Z" fill="#F5921E"/>
</svg>
