<svg viewBox="0 0 86 19" fill="none" xmlns="http://www.w3.org/2000/svg">
<path d="M74.6788 18V1.20001H85.1068V3.69601H77.1748V7.75201H83.5588V10.248H77.1748V15.504H85.1068V18H74.6788Z" fill="black"/>
<path d="M61.7747 18V1.20001H67.5587C68.4627 1.20001 69.2787 1.42401 70.0067 1.87201C70.7427 2.32001 71.3267 2.92401 71.7587 3.68401C72.1987 4.44401 72.4187 5.28401 72.4187 6.20401C72.4187 7.14001 72.1947 7.98801 71.7467 8.74801C71.3067 9.50001 70.7187 10.1 69.9827 10.548C69.2467 10.996 68.4387 11.22 67.5587 11.22H64.2707V18H61.7747ZM64.2707 8.72401H67.3067C67.7867 8.72401 68.2227 8.60401 68.6147 8.36401C69.0147 8.12401 69.3307 7.80401 69.5627 7.40401C69.8027 7.00401 69.9227 6.55201 69.9227 6.04801C69.9227 5.54401 69.8027 5.09201 69.5627 4.69201C69.3307 4.28401 69.0147 3.96401 68.6147 3.73201C68.2227 3.49201 67.7867 3.37201 67.3067 3.37201H64.2707V8.72401Z" fill="black"/>
<path d="M50.6315 1.20001H53.5475L59.6555 18H57.0155L55.8515 14.808H48.3275L47.1755 18H44.5235L50.6315 1.20001ZM49.2515 12.312H54.9275L52.0835 4.51201L49.2515 12.312Z" fill="black"/>
<path d="M36.3832 18.312C35.2472 18.312 34.1792 18.088 33.1792 17.64C32.1792 17.184 31.2992 16.56 30.5392 15.768C29.7872 14.968 29.1952 14.04 28.7632 12.984C28.3392 11.928 28.1272 10.8 28.1272 9.6C28.1272 8.4 28.3392 7.272 28.7632 6.216C29.1952 5.16 29.7872 4.236 30.5392 3.444C31.2992 2.644 32.1792 2.02 33.1792 1.572C34.1792 1.116 35.2472 0.888 36.3832 0.888C37.7432 0.888 38.9952 1.204 40.1392 1.836C41.2832 2.468 42.2312 3.308 42.9832 4.356L40.7632 5.544C40.2432 4.888 39.5992 4.364 38.8312 3.972C38.0632 3.58 37.2472 3.384 36.3832 3.384C35.5832 3.384 34.8352 3.548 34.1392 3.876C33.4432 4.204 32.8312 4.652 32.3032 5.22C31.7752 5.788 31.3632 6.448 31.0672 7.2C30.7712 7.952 30.6232 8.752 30.6232 9.6C30.6232 10.456 30.7712 11.26 31.0672 12.012C31.3632 12.756 31.7752 13.416 32.3032 13.992C32.8392 14.56 33.4552 15.008 34.1512 15.336C34.8472 15.656 35.5912 15.816 36.3832 15.816C37.2632 15.816 38.0832 15.62 38.8432 15.228C39.6112 14.828 40.2512 14.3 40.7632 13.644L42.9832 14.856C42.2312 15.904 41.2832 16.744 40.1392 17.376C38.9952 18 37.7432 18.312 36.3832 18.312Z" fill="black"/>
<path d="M19.9568 18.312C19.0368 18.312 18.1528 18.168 17.3048 17.88C16.4568 17.592 15.7168 17.18 15.0848 16.644C14.4528 16.1 14.0008 15.456 13.7288 14.712L16.0688 13.836C16.2048 14.22 16.4648 14.564 16.8488 14.868C17.2408 15.164 17.7048 15.396 18.2408 15.564C18.7848 15.732 19.3568 15.816 19.9568 15.816C20.5968 15.816 21.1968 15.712 21.7568 15.504C22.3248 15.296 22.7808 15.008 23.1248 14.64C23.4768 14.272 23.6528 13.84 23.6528 13.344C23.6528 12.832 23.4688 12.412 23.1008 12.084C22.7408 11.756 22.2768 11.496 21.7088 11.304C21.1488 11.112 20.5648 10.968 19.9568 10.872C18.7808 10.68 17.7248 10.4 16.7888 10.032C15.8608 9.66401 15.1248 9.14801 14.5808 8.48401C14.0448 7.82001 13.7768 6.95601 13.7768 5.89201C13.7768 4.89201 14.0608 4.02001 14.6288 3.27601C15.2048 2.53201 15.9608 1.95601 16.8968 1.54801C17.8408 1.13201 18.8608 0.924011 19.9568 0.924011C20.8608 0.924011 21.7328 1.06801 22.5728 1.35601C23.4208 1.63601 24.1648 2.04801 24.8048 2.59201C25.4528 3.12801 25.9168 3.78001 26.1968 4.54801L23.8328 5.40001C23.6968 5.00801 23.4368 4.66801 23.0528 4.38001C22.6688 4.08401 22.2048 3.85201 21.6608 3.68401C21.1248 3.51601 20.5568 3.43201 19.9568 3.43201C19.3168 3.42401 18.7168 3.52801 18.1568 3.74401C17.6048 3.95201 17.1528 4.24001 16.8008 4.60801C16.4488 4.97601 16.2728 5.40401 16.2728 5.89201C16.2728 6.49201 16.4368 6.94801 16.7648 7.26001C17.0928 7.57201 17.5328 7.80401 18.0848 7.95601C18.6448 8.10001 19.2688 8.23201 19.9568 8.35201C21.0608 8.52801 22.0808 8.82001 23.0168 9.22801C23.9608 9.63601 24.7168 10.18 25.2848 10.86C25.8608 11.532 26.1488 12.36 26.1488 13.344C26.1488 14.336 25.8608 15.208 25.2848 15.96C24.7168 16.704 23.9608 17.284 23.0168 17.7C22.0808 18.108 21.0608 18.312 19.9568 18.312Z" fill="black"/>
<path d="M0.900665 18V1.20001H11.3287V3.69601H3.39667V7.75201H9.78066V10.248H3.39667V15.504H11.3287V18H0.900665Z" fill="black"/>
</svg>
